<?xml version="1.0" encoding="utf-8"?>
<!-- Generator: Adobe Illustrator 16.0.2, SVG Export Plug-In . SVG Version: 6.00 Build 0)  -->
<!DOCTYPE svg PUBLIC "-//W3C//DTD SVG 1.1//EN" "http://www.w3.org/Graphics/SVG/1.1/DTD/svg11.dtd">
<svg version="1.1" id="Layer_5" xmlns="http://www.w3.org/2000/svg" xmlns:xlink="http://www.w3.org/1999/xlink" x="0px" y="0px"
	 width="70px" height="70px" viewBox="221 221 70 70" enable-background="new 221 221 70 70" xml:space="preserve">
<g>
	<path fill="#0B2E58" d="M275.61,276.675h-6.082c4.433-4.771,7.151-11.155,7.151-18.166c0-5.813-1.89-11.42-5.35-16.028h8.555
		c5.303,0,9.617-4.315,9.617-9.617c0-5.303-4.314-9.617-9.617-9.617h-6.411c-5.302,0-9.617,4.314-9.617,9.617v2.824
		c-4.177-2.552-8.938-3.893-13.891-3.893c-14.73,0-26.714,11.984-26.714,26.714c0,6.764,2.574,13.247,7.134,18.166h-0.723v2.137
		h20.303c11.195,0,20.302-9.107,20.302-20.303s-9.107-20.302-20.302-20.302c-11.195,0-20.303,9.107-20.303,20.302
		c0,7.939,4.582,14.829,11.24,18.166h-7.48c-5.107-4.654-8.035-11.25-8.035-18.166c0-13.552,11.025-24.577,24.577-24.577
		c5.005,0,9.791,1.5,13.891,4.318v4.23h4.718c3.844,4.458,5.968,10.125,5.968,16.028c0,13.551-11.024,24.576-24.577,24.576H231.8
		v2.138h18.166h25.645v4.023l13.831-8.298l-13.831-8.299V276.675z M231.8,258.509c0-10.017,8.149-18.166,18.166-18.166
		c10.016,0,18.165,8.149,18.165,18.166s-8.148,18.166-18.165,18.166C239.949,276.675,231.8,268.525,231.8,258.509z M265.993,232.864
		c0-4.125,3.354-7.48,7.48-7.48h6.411c4.124,0,7.479,3.355,7.479,7.48c0,4.125-3.355,7.479-7.479,7.479h-13.892V232.864z
		 M277.747,276.424l7.541,4.524l-7.541,4.524v-2.388H260.43c2.511-1.072,4.821-2.523,6.869-4.273h10.448V276.424z"/>
	<path fill="#FA8503" d="M225.388,276.675h2.137v2.137h-2.137V276.675z"/>
	<path fill="#FA8503" d="M223.251,283.085h2.137v2.138h-2.137V283.085z"/>
	<path fill="#FA8503" d="M227.525,283.085h2.137v2.138h-2.137V283.085z"/>
	<path fill="#FA8503" d="M265.993,258.509c0-8.838-7.189-16.028-16.028-16.028c-8.838,0-16.028,7.19-16.028,16.028
		s7.19,16.028,16.028,16.028C258.804,274.537,265.993,267.347,265.993,258.509z M242.41,264.554l-2.983,2.981
		c-1.866-2.176-3.067-4.931-3.299-7.957h4.22v-2.137h-4.22c0.232-3.027,1.433-5.782,3.3-7.958l2.982,2.982l1.511-1.511l-2.982-2.982
		c2.175-1.867,4.931-3.068,7.958-3.3v4.219h2.137v-4.22c3.027,0.232,5.782,1.433,7.958,3.3l-2.983,2.982l1.512,1.511l2.98-2.982
		c1.867,2.175,3.069,4.931,3.301,7.958h-4.22v2.137h4.22c-0.231,3.027-1.434,5.782-3.301,7.957l-2.98-2.981l-1.512,1.51l2.983,2.983
		c-2.176,1.867-4.932,3.067-7.958,3.299v-4.22h-2.137v4.22c-3.028-0.231-5.783-1.432-7.958-3.299l2.982-2.983L242.41,264.554z"/>
	<path fill="#FA8503" d="M249.965,261.714c0.494,0,0.955-0.121,1.373-0.321l2.146,2.146l1.511-1.513l-2.146-2.146
		c0.201-0.417,0.321-0.879,0.321-1.372c0-1.392-0.896-2.566-2.137-3.009v-4.471h-2.137v4.471c-1.241,0.442-2.138,1.617-2.138,3.009
		C246.759,260.276,248.198,261.714,249.965,261.714z M249.965,257.44c0.588,0,1.068,0.479,1.068,1.068
		c0,0.589-0.48,1.068-1.068,1.068c-0.589,0-1.068-0.479-1.068-1.068C248.897,257.919,249.376,257.44,249.965,257.44z"/>
	<path fill="#FA8503" d="M271.336,227.521h10.686v2.137h-10.686V227.521z"/>
	<path fill="#FA8503" d="M271.336,231.795h10.686v2.137h-10.686V231.795z"/>
	<path fill="#FA8503" d="M279.885,236.069h2.137v2.138h-2.137V236.069z"/>
	<path fill="#FA8503" d="M275.61,236.069h2.137v2.138h-2.137V236.069z"/>
	<path fill="#FA8503" d="M271.336,236.069h2.138v2.138h-2.138V236.069z"/>
</g>
</svg>
