<?xml version="1.0" encoding="utf-8"?>
<!-- Generator: Adobe Illustrator 16.0.2, SVG Export Plug-In . SVG Version: 6.00 Build 0)  -->
<!DOCTYPE svg PUBLIC "-//W3C//DTD SVG 1.1//EN" "http://www.w3.org/Graphics/SVG/1.1/DTD/svg11.dtd">
<svg version="1.1" id="Layer_1" xmlns="http://www.w3.org/2000/svg" xmlns:xlink="http://www.w3.org/1999/xlink" x="0px" y="0px"
	 width="70px" height="70px" viewBox="221 221 70 70" enable-background="new 221 221 70 70" xml:space="preserve">
<g>
	<g id="XMLID_2538_">
		<g id="XMLID_740_">
			<path id="XMLID_743_" fill="#0B2E58" d="M285.01,280.793l-4.509-7.818c-0.364-0.631-1.177-0.851-1.817-0.479
				c-0.631,0.362-0.851,1.177-0.479,1.808l3.166,5.495l-5.697-0.734l-2.744-4.652c-0.368-0.638-1.185-0.845-1.821-0.47
				c-0.627,0.368-0.84,1.185-0.465,1.815l2.728,4.643l-2.2,5.285l-7.466-12.92c2.057-0.531,3.883-1.902,4.963-3.934
				c0.762-1.433,2.108-2.407,3.699-2.688c4.19-0.736,7.015-4.611,6.418-8.836c-0.23-1.595,0.289-3.181,1.412-4.341
				c2.959-3.058,2.959-7.858,0-10.921c-1.123-1.161-1.642-2.742-1.412-4.341c0.597-4.219-2.229-8.1-6.418-8.836
				c-1.591-0.277-2.938-1.257-3.699-2.684c-1.997-3.764-6.557-5.246-10.381-3.373c-1.457,0.708-3.119,0.708-4.568,0
				c-3.829-1.873-8.393-0.391-10.386,3.373c-0.76,1.426-2.105,2.407-3.695,2.684c-4.198,0.737-7.018,4.618-6.421,8.836
				c0.227,1.6-0.287,3.181-1.409,4.341c-2.963,3.063-2.963,7.863,0,10.921c1.122,1.161,1.635,2.747,1.409,4.341
				c-0.415,2.953,0.837,5.734,3.063,7.395l-9.288,16.092c-0.254,0.433-0.235,0.977,0.043,1.399c0.28,0.415,0.773,0.645,1.275,0.58
				l8-1.035l3.108,7.443c0.197,0.467,0.636,0.785,1.141,0.817c0.028,0.002,0.056,0.003,0.086,0.003c0.471,0,0.911-0.249,1.15-0.664
				l9.464-16.391c0.832-0.111,1.662-0.353,2.46-0.742c1.449-0.705,3.111-0.705,4.568,0c0.799,0.39,1.624,0.631,2.461,0.743
				l9.46,16.39c0.236,0.415,0.679,0.664,1.152,0.664c0.022,0,0.056-0.001,0.08-0.003c0.508-0.032,0.946-0.351,1.14-0.817
				l3.109-7.443l8.002,1.035c0.499,0.064,0.995-0.165,1.277-0.58C285.249,281.77,285.261,281.226,285.01,280.793z M240.836,285.686
				l-2.218-5.313l1.792-3.279c0.35-0.641,0.113-1.448-0.529-1.801c-0.643-0.348-1.452-0.116-1.801,0.53l-1.777,3.245l-5.672,0.73
				l8.02-13.891c0.318,0.094,0.646,0.178,0.986,0.235c1.59,0.281,2.935,1.257,3.695,2.689c1.076,2.03,2.906,3.401,4.962,3.934
				L240.836,285.686z M252.552,269.819c-2.536,1.234-5.555,0.256-6.875-2.231c-1.146-2.158-3.177-3.64-5.582-4.055
				c-0.479-0.086-0.931-0.236-1.346-0.435c-0.003-0.001-0.006-0.004-0.009-0.006c-0.052-0.022-0.103-0.051-0.154-0.076
				c-1.909-0.988-3.055-3.085-2.739-5.331c0.343-2.42-0.436-4.812-2.132-6.564c-1.96-2.027-1.96-5.2,0-7.227
				c1.697-1.755,2.476-4.146,2.132-6.563c-0.395-2.792,1.473-5.358,4.249-5.848c2.405-0.421,4.437-1.896,5.582-4.053
				c0.936-1.761,2.719-2.769,4.58-2.769c0.771,0,1.552,0.173,2.295,0.536c2.192,1.071,4.705,1.071,6.896,0l0,0
				c2.535-1.24,5.55-0.258,6.878,2.234c1.138,2.156,3.18,3.631,5.579,4.052c2.781,0.489,4.646,3.056,4.249,5.848
				c-0.339,2.417,0.436,4.808,2.127,6.563c1.966,2.027,1.966,5.2,0,7.227c-1.691,1.753-2.466,4.145-2.127,6.565
				c0.397,2.792-1.468,5.357-4.249,5.848c-2.399,0.415-4.441,1.896-5.579,4.055c-1.328,2.487-4.343,3.466-6.878,2.231
				C257.257,268.746,254.744,268.746,252.552,269.819z"/>
			<path id="XMLID_745_" fill="#0B2E58" d="M275.756,268.104c-0.25,0.245-0.394,0.59-0.394,0.942c0,0.341,0.144,0.684,0.394,0.935
				c0.249,0.25,0.592,0.394,0.935,0.394c0.354,0,0.696-0.144,0.94-0.394c0.25-0.251,0.388-0.594,0.388-0.935
				c0-0.353-0.138-0.697-0.388-0.942c-0.244-0.249-0.587-0.386-0.94-0.386C276.348,267.718,276.005,267.854,275.756,268.104z"/>
			<path id="XMLID_748_" fill="#FA8503" d="M273.795,247.507c0-9.814-7.985-17.794-17.794-17.794
				c-9.812,0-17.795,7.98-17.795,17.794c0,9.801,7.972,17.781,17.776,17.794c0.002,0,0.002,0,0.002,0c0.001,0,0.003,0,0.004,0
				c0.004,0,0.008,0,0.012,0C265.81,265.302,273.795,257.317,273.795,247.507z M240.862,247.507c0-8.35,6.789-15.139,15.139-15.139
				c8.344,0,15.139,6.789,15.139,15.139c0,3.353-1.095,6.452-2.953,8.965c-0.438-1.85-1.913-3.35-3.82-3.77l-3.896-0.851
				c1.057-1.111,1.705-2.608,1.705-4.258v-3.91c0.472-0.694,0.748-1.532,0.748-2.433v-3.207c0-0.734-0.594-1.328-1.327-1.328h-6.471
				c-2.924,0-5.3,2.376-5.3,5.3v2.248c0,0.057,0.005,0.107,0.012,0.162c-0.007,0.05-0.012,0.103-0.012,0.157v3.01
				c0,1.649,0.647,3.144,1.705,4.253l-3.9,0.854c-1.907,0.422-3.38,1.922-3.822,3.771
				C241.958,253.959,240.862,250.859,240.862,247.507z M258.579,245.593c0.32,0,0.642-0.035,0.94-0.101v2.103
				c0,1.942-1.576,3.52-3.519,3.52s-3.52-1.577-3.52-3.52v-2.001H258.579z M254.131,253.482c0.591,0.186,1.221,0.288,1.87,0.288
				c0.639,0,1.263-0.099,1.844-0.279c0.175,0.188,0.369,0.354,0.579,0.488l-2.44,6.311l-2.44-6.31
				C253.763,253.842,253.96,253.674,254.131,253.482z M260.269,241.251c0,0.93-0.761,1.686-1.689,1.686h-6.098v-0.921
				c0-1.458,1.186-2.645,2.645-2.645h5.143V241.251z M250.97,254.689l3.026,7.824c-2.893-0.382-5.527-1.586-7.67-3.366v-1.52
				c0-1.117,0.792-2.093,1.875-2.332L250.97,254.689z M261.006,254.689l2.797,0.608c1.079,0.238,1.866,1.214,1.866,2.33v1.519
				c-2.141,1.788-4.788,2.995-7.698,3.372L261.006,254.689z"/>
		</g>
	</g>
</g>
</svg>
