<?xml version="1.0" encoding="utf-8"?>
<!-- Generator: Adobe Illustrator 16.0.2, SVG Export Plug-In . SVG Version: 6.00 Build 0)  -->
<!DOCTYPE svg PUBLIC "-//W3C//DTD SVG 1.1//EN" "http://www.w3.org/Graphics/SVG/1.1/DTD/svg11.dtd">
<svg version="1.1" id="Layer_1" xmlns="http://www.w3.org/2000/svg" xmlns:xlink="http://www.w3.org/1999/xlink" x="0px" y="0px"
	 width="70px" height="70px" viewBox="221 221 70 70" enable-background="new 221 221 70 70" xml:space="preserve">
<path fill="#FA8503" d="M261.484,230.774h2.193v2.193h-2.193V230.774z"/>
<path fill="#FA8503" d="M257.097,230.774h2.193v2.193h-2.193V230.774z"/>
<path fill="#FA8503" d="M248.323,239.548h2.193v2.194h-2.193V239.548z"/>
<path fill="#FA8503" d="M252.709,239.548h2.194v2.194h-2.194V239.548z"/>
<path fill="#FA8503" d="M261.484,248.323h2.193v2.193h-2.193V248.323z"/>
<path fill="#FA8503" d="M257.097,248.323h2.193v2.193h-2.193V248.323z"/>
<path fill="#FA8503" d="M248.323,257.097h2.193v2.193h-2.193V257.097z"/>
<path fill="#FA8503" d="M252.709,257.097h2.194v2.193h-2.194V257.097z"/>
<path fill="#FA8503" d="M230.774,239.548h2.193v2.194h-2.193V239.548z"/>
<path fill="#FA8503" d="M235.161,239.548h2.194v2.194h-2.194V239.548z"/>
<path fill="#FA8503" d="M230.774,257.097h2.193v2.193h-2.193V257.097z"/>
<path fill="#FA8503" d="M235.161,257.097h2.194v2.193h-2.194V257.097z"/>
<path fill="#0B2E58" d="M284.517,230.774h-12.065v-3.291c0-3.024-2.46-5.484-5.483-5.484h-21.936c-3.024,0-5.484,2.46-5.484,5.484
	v3.291h-12.064c-3.024,0-5.484,2.46-5.484,5.484v30.709c0,3.023,2.46,5.483,5.484,5.483h8.995c-0.003,0.015-0.004,0.03-0.006,0.046
	c-4.426,0.443-7.892,4.189-7.892,8.729c0,4.838,3.937,8.774,8.774,8.774h37.291c4.838,0,8.773-3.937,8.773-8.774
	c0-4.467-3.358-8.157-7.681-8.698c0-0.025,0.004-0.051,0.004-0.076h8.774c3.023,0,5.483-2.46,5.483-5.483v-30.709
	C290,233.234,287.54,230.774,284.517,230.774z M283.419,252.709h-10.968v-6.581h10.968V252.709z M283.419,254.903v6.581h-10.968
	v-6.581H283.419z M283.419,243.936h-10.968v-6.581h10.968V243.936z M245.032,224.193h21.936c1.814,0,3.29,1.477,3.29,3.291v34.299
	c-0.686-0.494-1.418-0.924-2.193-1.281v-31.921c0-1.209-0.983-2.193-2.193-2.193h-19.742c-1.209,0-2.193,0.984-2.193,2.193v35.607
	c-0.771,0.241-1.505,0.565-2.193,0.963v-37.667C241.742,225.67,243.218,224.193,245.032,224.193z M251.925,264.757
	c-1.463-0.695-3.063-1.079-4.7-1.079c-0.369,0-0.736,0.021-1.097,0.057v-8.831h19.742v4.82c-1.054-0.273-2.152-0.434-3.29-0.434
	C258.198,259.29,254.319,261.452,251.925,264.757L251.925,264.757z M265.871,235.161h-19.742v-6.581h19.742V235.161z
	 M246.129,237.355h19.742v6.581h-19.742V237.355z M246.129,246.129h19.742v6.581h-19.742V246.129z M239.548,243.936h-10.968v-6.581
	h10.968V243.936z M228.581,246.129h10.968v6.581h-10.968V246.129z M228.581,254.903h10.968v6.581h-10.968V254.903z M224.193,266.968
	v-30.709c0-1.814,1.477-3.291,3.291-3.291h12.064v2.193h-10.968c-1.209,0-2.193,0.984-2.193,2.194v32.702
	C225.114,269.603,224.193,268.396,224.193,266.968z M228.581,270.258v-6.58h10.968v3.14c-0.995,0.976-1.806,2.138-2.375,3.44
	H228.581z M281.226,281.226c0,3.63-2.951,6.581-6.58,6.581h-37.291c-3.629,0-6.581-2.951-6.581-6.581c0-3.629,2.951-6.58,6.581-6.58
	c3.629,0,6.581,2.951,6.581,6.58h2.193c0-4.377-3.226-8.005-7.422-8.659c0.938-3.884,4.418-6.695,8.519-6.695
	c1.236,0,2.449,0.267,3.567,0.765c-0.871,1.756-1.373,3.727-1.373,5.815h2.193c0-6.047,4.92-10.967,10.968-10.967
	c6.047,0,10.968,4.92,10.968,10.967c0,0.025-0.004,0.051-0.004,0.077c-4.319,0.544-7.674,4.232-7.674,8.697h2.193
	c0-3.629,2.951-6.58,6.581-6.58C278.274,274.646,281.226,277.597,281.226,281.226z M275.543,270.258
	c-0.415-2.46-1.511-4.687-3.092-6.482v-0.098h10.968v6.58H275.543z M287.807,266.968c0,1.428-0.92,2.635-2.193,3.089v-32.702
	c0-1.21-0.984-2.194-2.194-2.194h-10.968v-2.193h12.065c1.813,0,3.29,1.476,3.29,3.291V266.968z"/>
<path fill="#FA8503" d="M279.032,239.548h2.193v2.194h-2.193V239.548z"/>
<path fill="#FA8503" d="M274.646,239.548h2.193v2.194h-2.193V239.548z"/>
<path fill="#FA8503" d="M279.032,257.097h2.193v2.193h-2.193V257.097z"/>
<path fill="#FA8503" d="M274.646,257.097h2.193v2.193h-2.193V257.097z"/>
<path fill="#FA8503" d="M269.094,271.511l2.171-0.311c-0.613-4.289-4.347-7.522-8.684-7.522c-0.852,0-1.694,0.121-2.507,0.363
	l0.625,2.104c0.609-0.182,1.242-0.273,1.882-0.273C265.835,265.871,268.635,268.295,269.094,271.511z"/>
<path fill="#FA8503" d="M237.355,283.419h2.193v2.194h-2.193V283.419z"/>
<path fill="#FA8503" d="M241.742,283.419h2.193v2.194h-2.193V283.419z"/>
<path fill="#FA8503" d="M246.129,283.419h2.194v2.194h-2.194V283.419z"/>
</svg>
