<?xml version="1.0" encoding="utf-8"?>
<!-- Generator: Adobe Illustrator 16.0.2, SVG Export Plug-In . SVG Version: 6.00 Build 0)  -->
<!DOCTYPE svg PUBLIC "-//W3C//DTD SVG 1.1//EN" "http://www.w3.org/Graphics/SVG/1.1/DTD/svg11.dtd">
<svg version="1.1" id="Capa_1" xmlns="http://www.w3.org/2000/svg" xmlns:xlink="http://www.w3.org/1999/xlink" x="0px" y="0px"
	 width="70px" height="70px" viewBox="221 221 70 70" enable-background="new 221 221 70 70" xml:space="preserve">
<g>
	<path fill="#FA8503" d="M271.354,228.581c-6.651,0-12.064,5.413-12.064,12.064s5.413,12.064,12.064,12.064
		c6.652,0,12.064-5.413,12.064-12.064S278.007,228.581,271.354,228.581z M271.354,250.516c-5.442,0-9.87-4.429-9.87-9.871
		c0-5.442,4.428-9.871,9.87-9.871s9.871,4.429,9.871,9.871C281.226,246.087,276.797,250.516,271.354,250.516z"/>
	<path fill="#0B2E58" d="M287.001,235.593c-0.271-0.847-0.609-1.666-1.008-2.445l1.439-2.795l-5.784-5.784l-2.796,1.439
		c-0.779-0.398-1.598-0.736-2.444-1.008l-0.964-3h-8.181l-0.961,2.999c-0.847,0.272-1.666,0.61-2.444,1.008l-2.796-1.439
		l-5.784,5.785l1.345,2.616h-31.333c-1.814,0-3.291,1.476-3.291,3.291v46.064c0,1.814,1.476,3.291,3.291,3.291h39.138
		c1.235,2.589,3.872,4.387,6.926,4.387c4.233,0,7.678-3.444,7.678-7.678c0-3.859-2.866-7.054-6.581-7.589v-13.249h-2.193v13.249
		c-3.715,0.535-6.58,3.729-6.58,7.589c0,0.373,0.036,0.737,0.087,1.097h-38.474c-0.604,0-1.097-0.492-1.097-1.097v-34h32.431
		l-1.346,2.615l5.784,5.784l2.796-1.439c0.778,0.398,1.598,0.736,2.444,1.008l0.962,3h8.181l0.961-2.998
		c0.847-0.272,1.666-0.61,2.445-1.008l2.796,1.439l5.784-5.784l-1.439-2.795c0.398-0.777,0.735-1.597,1.008-2.444l3-0.964v-8.181
		L287.001,235.593z M271.354,276.839c3.024,0,5.484,2.46,5.484,5.483c0,3.024-2.46,5.484-5.484,5.484
		c-3.023,0-5.483-2.46-5.483-5.484C265.871,279.299,268.331,276.839,271.354,276.839z M224.193,236.258
		c0-0.604,0.493-1.097,1.097-1.097h30.577c-0.051,0.145-0.111,0.285-0.158,0.432l-3,0.962v8.181l2.999,0.96
		c0.047,0.147,0.107,0.288,0.158,0.432h-31.673V236.258z M287.807,243.136l-2.584,0.828l-0.16,0.567
		c-0.307,1.083-0.731,2.114-1.265,3.065l-0.288,0.514l1.239,2.408l-3.522,3.521l-2.407-1.238l-0.513,0.288
		c-0.953,0.533-1.985,0.959-3.067,1.265l-0.566,0.16l-0.827,2.583h-4.98l-0.828-2.584l-0.567-0.16
		c-1.081-0.306-2.113-0.731-3.066-1.265l-0.513-0.287l-2.408,1.238l-3.521-3.522l1.239-2.407l-0.288-0.514
		c-0.533-0.951-0.959-1.983-1.265-3.066l-0.16-0.567l-2.584-0.827v-4.98l2.584-0.828l0.16-0.567
		c0.306-1.082,0.731-2.113,1.265-3.066l0.287-0.513l-1.238-2.408l3.521-3.521l2.408,1.238l0.513-0.288
		c0.953-0.533,1.985-0.959,3.066-1.265l0.567-0.16l0.827-2.584h4.98l0.828,2.584l0.566,0.16c1.082,0.306,2.114,0.732,3.067,1.265
		l0.513,0.288l2.407-1.238l3.522,3.521l-1.238,2.408l0.287,0.513c0.533,0.953,0.96,1.985,1.265,3.066l0.16,0.567l2.584,0.827
		V243.136z"/>
	<path fill="#FA8503" d="M273.768,236.916l2.797,3.729l-2.797,3.729l1.755,1.316l3.784-5.045l-3.784-5.045L273.768,236.916z"/>
	<path fill="#FA8503" d="M267.188,235.6l-3.784,5.045l3.784,5.045l1.755-1.316l-2.797-3.729l2.797-3.729L267.188,235.6z"/>
	<path fill="#FA8503" d="M269.188,248.17l2.202-15.355l2.172,0.312l-2.202,15.355L269.188,248.17z"/>
	<path fill="#0B2E58" d="M239.548,237.355h-10.968c-1.209,0-2.193,0.984-2.193,2.193v2.194c0,1.209,0.984,2.193,2.193,2.193h10.968
		c1.21,0,2.194-0.984,2.194-2.193v-2.194C241.742,238.339,240.758,237.355,239.548,237.355z M235.161,239.548v2.194h-2.193v-2.194
		H235.161z M228.581,239.548h2.194v2.194h-2.194V239.548z M237.355,241.742v-2.194h2.193l0.001,2.194H237.355z"/>
	<path fill="#FA8503" d="M271.354,285.613c1.814,0,3.291-1.477,3.291-3.291c0-1.813-1.477-3.29-3.291-3.29
		c-1.813,0-3.29,1.477-3.29,3.29C268.064,284.137,269.541,285.613,271.354,285.613z M271.354,281.226
		c0.604,0,1.097,0.492,1.097,1.097s-0.492,1.097-1.097,1.097s-1.097-0.492-1.097-1.097S270.75,281.226,271.354,281.226z"/>
	<path fill="#FA8503" d="M285.613,274.847V270.9l-4.388-4.387v-8.32h-2.193v9.229l4.387,4.387v3.038
		c-1.272,0.454-2.193,1.661-2.193,3.089c0,1.814,1.477,3.29,3.291,3.29c1.813,0,3.29-1.476,3.29-3.29
		C287.807,276.508,286.887,275.301,285.613,274.847z M284.517,279.032c-0.604,0-1.098-0.492-1.098-1.097s0.493-1.097,1.098-1.097
		c0.604,0,1.097,0.492,1.097,1.097S285.12,279.032,284.517,279.032z"/>
	<path fill="#FA8503" d="M263.678,267.422v-9.229h-2.193v8.32l-4.388,4.387v3.946c-1.273,0.454-2.193,1.661-2.193,3.089
		c0,1.814,1.476,3.29,3.29,3.29c1.814,0,3.291-1.476,3.291-3.29c0-1.428-0.921-2.635-2.194-3.089v-3.038L263.678,267.422z
		 M258.193,279.032c-0.604,0-1.097-0.492-1.097-1.097s0.492-1.097,1.097-1.097s1.097,0.492,1.097,1.097
		S258.798,279.032,258.193,279.032z"/>
	<path fill="#FA8503" d="M231.871,252.709h1.097v-2.193h-1.097c-1.814,0-3.291,1.476-3.291,3.291c0,0.604-0.492,1.097-1.097,1.097
		h-1.097v2.193h1.097c0.604,0,1.097,0.492,1.097,1.097c0,1.814,1.477,3.291,3.291,3.291h1.097v-2.194h-1.097
		c-0.604,0-1.097-0.492-1.097-1.097c0-0.846-0.331-1.61-0.856-2.193c0.525-0.583,0.856-1.348,0.856-2.193
		C230.774,253.202,231.267,252.709,231.871,252.709z"/>
	<path fill="#FA8503" d="M235.161,250.516h13.162v2.193h-13.162V250.516z"/>
	<path fill="#FA8503" d="M235.161,254.903h13.162v2.193h-13.162V254.903z"/>
	<path fill="#FA8503" d="M246.129,259.29h2.194v2.194h-2.194V259.29z"/>
	<path fill="#FA8503" d="M235.161,259.29h8.774v2.194h-8.774V259.29z"/>
	<path fill="#FA8503" d="M250.516,275.742c0-0.604,0.493-1.097,1.097-1.097h1.097v-2.194h-1.097c-0.604,0-1.097-0.492-1.097-1.097
		c0-1.813-1.476-3.29-3.291-3.29h-1.097v2.193h1.097c0.604,0,1.097,0.492,1.097,1.097c0,0.846,0.33,1.61,0.855,2.194
		c-0.527,0.583-0.855,1.348-0.855,2.193c0,0.604-0.493,1.097-1.097,1.097h-1.097v2.193h1.097
		C249.04,279.032,250.516,277.556,250.516,275.742z"/>
	<path fill="#FA8503" d="M230.774,276.839h13.161v2.193h-13.161V276.839z"/>
	<path fill="#FA8503" d="M235.161,272.451h8.774v2.194h-8.774V272.451z"/>
	<path fill="#FA8503" d="M230.774,272.451h2.193v2.194h-2.193V272.451z"/>
	<path fill="#FA8503" d="M230.774,268.064h13.161v2.193h-13.161V268.064z"/>
	<path fill="#FA8503" d="M226.387,263.678h21.936v2.193h-21.936V263.678z"/>
</g>
</svg>
